<?xml version="1.0" standalone="no"?>
<!DOCTYPE svg PUBLIC "-//W3C//DTD SVG 20010904//EN"
 "http://www.w3.org/TR/2001/REC-SVG-20010904/DTD/svg10.dtd">
<svg version="1.0" xmlns="http://www.w3.org/2000/svg"
 width="102.000000pt" height="100.000000pt" viewBox="0 0 102.000000 100.000000"
 preserveAspectRatio="xMidYMid meet">

<g transform="translate(0.000000,100.000000) scale(0.100000,-0.100000)"
fill="#000000" stroke="none">
<path d="M482 754 c-18 -20 -5 -164 14 -164 10 0 14 17 14 64 0 36 5 68 10 71
15 9 12 19 -8 31 -13 9 -20 8 -30 -2z"/>
<path d="M300 675 c-11 -14 -10 -24 8 -61 12 -25 29 -44 38 -44 10 0 14 6 11
14 -3 8 -9 30 -12 50 -9 45 -28 62 -45 41z"/>
<path d="M670 655 c0 -8 -4 -15 -10 -15 -5 0 -10 -6 -10 -13 0 -7 -9 -19 -20
-27 -23 -17 -26 -30 -7 -30 19 0 87 65 87 84 0 9 -8 16 -20 16 -11 0 -20 -7
-20 -15z"/>
<path d="M156 615 c-14 -14 -12 -19 22 -48 20 -18 40 -36 44 -42 5 -6 11 -6
19 2 9 9 5 22 -17 57 -31 49 -44 55 -68 31z"/>
<path d="M792 591 c-40 -37 -53 -61 -33 -61 6 0 13 5 16 10 4 6 25 20 48 31
23 12 44 23 46 25 3 3 -24 34 -31 34 -2 0 -22 -17 -46 -39z"/>
<path d="M325 517 c-27 -12 -51 -25 -53 -29 -2 -4 -10 -8 -17 -8 -17 0 -75
-66 -75 -85 0 -8 -4 -15 -10 -15 -5 0 -10 -9 -10 -20 0 -11 -4 -20 -10 -20 -5
0 -10 -7 -10 -15 0 -8 -4 -24 -10 -35 -5 -11 -14 -29 -20 -40 -5 -11 -10 -31
-10 -45 0 -14 -3 -25 -8 -25 -8 0 -33 -72 -27 -79 9 -9 35 30 35 53 0 14 5 26
10 26 6 0 10 14 10 30 0 17 5 30 10 30 6 0 10 8 11 18 1 9 17 48 38 86 34 66
39 70 86 84 27 7 58 20 69 28 11 8 26 14 32 14 19 0 104 -90 104 -110 0 -18
-15 -10 -49 25 -18 19 -38 35 -44 35 -30 -1 -67 -51 -67 -91 0 -31 41 -109 57
-109 7 0 13 -4 13 -10 0 -5 7 -10 15 -10 8 0 15 -4 15 -10 0 -5 9 -10 20 -10
11 0 20 -4 20 -10 0 -5 9 -10 20 -10 13 0 20 -7 20 -20 0 -17 -7 -20 -40 -20
-22 0 -40 5 -40 10 0 6 -20 10 -45 10 -25 0 -45 5 -45 10 0 17 -87 12 -94 -6
-9 -23 -8 -24 14 -24 27 0 25 -7 -10 -40 -32 -30 -37 -40 -19 -40 13 0 69 58
69 71 0 5 25 9 55 9 30 0 55 -4 55 -10 0 -6 33 -10 80 -10 47 0 80 -4 80 -10
0 -5 23 -10 50 -10 28 0 50 5 50 10 0 22 53 9 80 -20 31 -34 40 -37 40 -15 0
8 -4 15 -10 15 -5 0 -10 6 -10 14 0 8 -6 17 -12 20 -10 5 -10 7 0 12 19 9 14
24 -8 24 -11 0 -20 -4 -20 -10 0 -5 -18 -10 -40 -10 -22 0 -40 -4 -40 -10 0
-5 -13 -10 -30 -10 -16 0 -30 5 -30 10 0 6 -9 10 -19 10 -10 0 -22 7 -25 16
-9 23 -8 24 19 24 14 0 25 5 25 10 0 6 7 10 15 10 8 0 15 4 15 10 0 5 16 25
35 44 19 20 35 44 35 56 0 11 5 20 10 20 19 0 10 41 -15 65 -24 25 -55 33 -55
15 0 -5 -8 -10 -18 -10 -10 0 -24 -9 -32 -20 -17 -24 -50 -27 -50 -5 0 9 9 26
20 37 14 16 17 24 8 29 -17 11 68 89 98 89 26 0 134 -50 134 -62 0 -4 -9 -8
-20 -8 -11 0 -20 5 -20 10 0 6 -9 10 -20 10 -11 0 -20 5 -20 10 0 6 -9 10 -20
10 -11 0 -20 -4 -20 -10 0 -5 -13 -10 -30 -10 -16 0 -30 -4 -30 -9 0 -5 -6
-11 -12 -14 -7 -2 -4 -2 7 0 66 16 89 14 136 -7 27 -13 49 -29 49 -37 0 -7 5
-13 10 -13 6 0 10 -9 10 -20 0 -11 5 -20 10 -20 6 0 10 -11 10 -24 0 -14 5
-28 10 -31 6 -3 10 -15 10 -26 0 -10 5 -19 10 -19 6 0 10 -13 10 -30 0 -16 5
-30 10 -30 6 0 10 -9 10 -20 0 -11 4 -20 8 -20 5 0 15 -23 22 -50 7 -28 17
-50 22 -50 4 0 8 -7 8 -15 0 -8 5 -15 10 -15 6 0 10 7 10 15 0 8 -4 15 -10 15
-5 0 -10 14 -10 30 0 17 -4 30 -8 30 -5 0 -15 22 -22 50 -7 27 -17 50 -22 50
-4 0 -8 9 -8 19 0 11 -4 23 -10 26 -5 3 -10 17 -10 31 0 13 -4 24 -10 24 -5 0
-10 9 -10 20 0 11 -4 20 -10 20 -5 0 -10 14 -10 30 0 17 -4 30 -10 30 -5 0
-10 14 -10 30 0 17 -4 30 -10 30 -5 0 -10 6 -10 13 0 13 -50 40 -97 51 -13 3
-32 8 -42 11 -13 4 -30 -5 -53 -27 -80 -78 -71 -77 -124 -19 -25 28 -54 51
-63 50 -9 0 -38 -10 -66 -22z m115 -37 c42 -43 49 -60 25 -60 -8 0 -15 5 -15
10 0 6 -5 10 -11 10 -6 0 -19 10 -28 21 -9 12 -35 25 -57 29 -31 6 -33 8 -11
9 15 0 27 6 27 11 0 22 33 8 70 -30z m-120 -9 c0 -10 -60 -24 -68 -16 -3 3 2
5 11 5 10 0 17 5 17 10 0 6 9 10 20 10 11 0 20 -4 20 -9z m210 -61 c0 -5 -4
-10 -10 -10 -5 0 -10 5 -10 10 0 6 5 10 10 10 6 0 10 -4 10 -10z m-100 -62
c22 -23 36 -28 74 -28 25 0 46 4 46 8 0 7 62 42 74 42 2 0 13 -8 24 -19 23
-19 29 -41 12 -41 -5 0 -10 -7 -10 -15 0 -8 -4 -15 -10 -15 -5 0 -10 -7 -10
-15 0 -20 -45 -65 -65 -65 -8 0 -15 -4 -15 -10 0 -5 -18 -10 -40 -10 -22 0
-40 5 -40 10 0 6 -9 10 -20 10 -11 0 -20 5 -20 10 0 6 -7 10 -15 10 -24 0 -67
48 -74 83 -18 87 27 110 89 45z"/>
</g>
</svg>
