<?xml version="1.0" standalone="no"?>
<!DOCTYPE svg PUBLIC "-//W3C//DTD SVG 20010904//EN"
 "http://www.w3.org/TR/2001/REC-SVG-20010904/DTD/svg10.dtd">
<svg version="1.0" xmlns="http://www.w3.org/2000/svg"
 width="103.000000pt" height="100.000000pt" viewBox="0 0 103.000000 100.000000"
 preserveAspectRatio="xMidYMid meet">

<g transform="translate(0.000000,100.000000) scale(0.100000,-0.100000)"
fill="#000000" stroke="none">
<path d="M665 618 c-154 -19 -237 -27 -327 -31 -62 -3 -103 -9 -114 -18 -17
-14 -17 -33 6 -279 21 -216 25 -230 69 -230 14 0 23 -8 27 -25 5 -20 12 -25
39 -25 46 0 65 9 65 31 0 15 7 19 34 19 19 0 38 5 41 10 3 6 31 10 61 10 53 0
54 0 54 -30 0 -29 2 -30 46 -30 50 0 89 25 64 40 -22 14 14 40 54 40 29 0 36
4 36 20 0 11 5 20 10 20 6 0 10 9 10 20 0 11 -4 20 -10 20 -5 0 -10 23 -10 50
0 28 -4 50 -10 50 -6 0 -10 57 -10 151 0 160 -3 170 -52 187 -13 4 -50 4 -83
0z m75 -17 c0 -5 9 -13 20 -16 16 -5 20 -15 20 -54 l0 -48 -57 -8 c-32 -5
-155 -9 -273 -9 l-215 -1 -3 44 c-2 27 1 47 9 52 13 8 149 12 149 4 0 -3 -9
-14 -21 -26 -20 -20 -20 -22 -3 -40 21 -23 40 -24 62 -3 14 15 17 15 27 0 26
-35 87 -1 71 40 -6 16 -57 19 -72 4 -8 -8 -15 -6 -24 4 -10 13 -9 17 4 21 9 3
23 7 33 10 9 3 59 8 111 12 53 3 107 9 121 13 36 11 41 11 41 1z m40 -251 c0
-67 4 -110 10 -110 6 0 10 -27 10 -60 l0 -60 -50 0 c-27 0 -50 -4 -50 -10 0
-6 -68 -10 -184 -10 -138 0 -186 -3 -190 -12 -5 -11 -7 -11 -12 0 -3 6 -14 12
-24 12 -20 0 -26 36 -36 238 l-5 102 78 0 c110 1 367 12 372 16 2 2 22 4 43 4
l38 0 0 -110z m-74 -284 c21 -22 17 -26 -26 -26 -33 0 -40 3 -40 20 0 24 43
28 66 6z m-296 -12 c0 -10 -28 -34 -40 -34 -12 0 -40 24 -40 34 0 3 18 6 40 6
22 0 40 -3 40 -6z"/>
<path d="M283 543 c-18 -7 -16 -53 1 -53 30 0 46 13 46 36 0 24 -17 30 -47 17z"/>
<path d="M633 543 c-84 -6 -61 -18 27 -15 44 2 80 8 80 13 0 5 -12 8 -27 7
-16 -1 -52 -3 -80 -5z"/>
<path d="M553 403 c-84 -2 -153 -7 -153 -11 0 -4 -19 -8 -42 -9 -42 -2 -62
-17 -53 -41 3 -8 5 -56 5 -108 l0 -94 205 0 c130 0 205 4 205 10 0 6 9 10 21
10 19 0 20 4 16 68 -9 125 -25 187 -46 180 -3 -1 -75 -4 -158 -5z m167 -132
c0 -92 -3 -111 -15 -111 -8 0 -15 6 -16 13 0 9 -2 9 -6 0 -2 -7 -20 -13 -39
-13 l-34 0 4 49 c3 33 0 51 -7 54 -9 3 -9 8 -1 16 16 17 -6 81 -27 81 -22 0
-33 -29 -14 -36 18 -7 20 -44 3 -44 -9 -1 -8 -5 3 -13 8 -7 16 -21 16 -32 1
-11 5 -32 9 -47 l6 -28 -136 0 -137 0 3 103 3 102 35 6 c19 3 106 6 193 8
l157 2 0 -110z"/>
<path d="M457 348 c-2 -7 2 -20 9 -29 8 -8 15 -33 16 -55 2 -21 8 -42 13 -46
6 -5 5 -12 -5 -17 -8 -6 -12 -13 -8 -16 10 -10 48 27 40 39 -3 6 -7 17 -7 26
-1 8 -8 36 -15 63 -14 45 -33 61 -43 35z"/>
<path d="M656 338 c4 -13 6 -42 5 -66 -1 -38 14 -72 33 -72 11 0 6 58 -5 62
-8 3 -8 10 2 26 12 20 12 24 -1 33 -11 8 -12 12 -2 16 21 8 13 23 -14 23 -22
0 -24 -3 -18 -22z"/>
<path d="M370 320 c0 -11 4 -20 8 -20 5 0 9 -13 9 -30 0 -16 -4 -30 -9 -30 -4
0 -8 -4 -8 -10 0 -5 7 -10 15 -10 8 0 15 -9 15 -20 0 -11 4 -20 9 -20 11 0 7
103 -4 138 -9 27 -35 29 -35 2z"/>
</g>
</svg>
