<?xml version="1.0" standalone="no"?>
<!DOCTYPE svg PUBLIC "-//W3C//DTD SVG 20010904//EN"
 "http://www.w3.org/TR/2001/REC-SVG-20010904/DTD/svg10.dtd">
<svg version="1.0" xmlns="http://www.w3.org/2000/svg"
 width="103.000000pt" height="100.000000pt" viewBox="0 0 103.000000 100.000000"
 preserveAspectRatio="xMidYMid meet">

<g transform="translate(0.000000,100.000000) scale(0.100000,-0.100000)"
fill="#000000" stroke="none">
<path d="M385 575 c-30 -15 -63 -43 -82 -69 -30 -39 -33 -49 -33 -114 0 -41 4
-72 10 -72 6 0 10 -7 10 -16 0 -18 48 -66 91 -91 37 -22 39 -53 3 -53 -27 0
-27 0 -21 -66 2 -36 8 -68 12 -72 3 -4 64 -7 133 -7 l127 0 3 40 c4 72 10 85
37 85 14 0 25 5 25 10 0 6 7 10 15 10 17 0 105 84 105 100 0 6 13 24 29 40 25
27 27 34 17 55 -13 30 -46 33 -69 7 -19 -21 -22 -42 -7 -42 6 0 10 -16 10 -35
0 -35 -35 -85 -60 -85 -5 0 -10 -4 -10 -10 0 -5 -7 -10 -15 -10 -8 0 -15 -4
-15 -10 0 -6 -28 -10 -65 -10 -37 0 -65 4 -65 10 0 6 7 10 15 10 8 0 15 5 15
10 0 6 7 10 16 10 25 0 104 84 114 122 13 43 13 125 0 133 -5 3 -10 13 -10 21
0 23 -61 84 -84 83 -21 0 -21 0 -1 -9 25 -9 36 -22 64 -73 24 -43 29 -134 9
-169 -21 -35 -76 -88 -93 -88 -8 0 -15 -4 -15 -10 0 -5 -18 -10 -40 -10 -22 0
-40 -4 -40 -10 0 -5 -11 -10 -24 -10 -13 0 -26 -6 -29 -12 -2 -8 -8 -9 -13 -4
-5 5 -4 11 4 13 21 8 13 23 -13 23 -14 0 -25 5 -25 10 0 6 -7 10 -15 10 -8 0
-15 5 -15 10 0 6 -6 10 -12 10 -20 0 -68 45 -68 64 0 9 -4 16 -10 16 -6 0 -10
32 -10 75 0 43 4 75 10 75 6 0 10 7 10 15 0 8 5 15 10 15 13 0 13 -23 -2 -55
-9 -19 -9 -28 0 -37 9 -9 12 -5 12 16 0 15 6 33 13 40 6 7 21 25 32 39 11 15
28 27 37 27 10 0 18 5 18 10 0 6 21 11 48 12 45 1 45 2 8 5 -22 3 -52 -2 -71
-11 -40 -19 -51 -20 -33 -3 35 32 78 47 137 47 34 0 61 -4 61 -10 0 -5 10 -10
23 -10 20 0 20 1 -7 15 -46 24 -151 19 -211 -10z m175 -405 c0 -5 -7 -10 -15
-10 -8 0 -15 5 -15 10 0 6 7 10 15 10 8 0 15 -4 15 -10z m60 -56 c0 -9 -31
-37 -36 -32 -9 9 8 38 22 38 8 0 14 -3 14 -6z"/>
<path d="M452 420 c-26 -24 -25 -22 -11 -54 12 -26 47 -40 73 -30 18 7 22 24
6 24 -5 0 -10 -4 -10 -10 0 -5 -7 -10 -15 -10 -8 0 -15 5 -15 10 0 6 -7 10
-15 10 -8 0 -15 9 -15 20 0 11 5 20 10 20 6 0 10 7 10 15 0 8 3 15 6 15 15 0
64 -36 67 -49 4 -13 5 -13 6 1 1 21 -37 58 -59 58 -9 0 -26 -9 -38 -20z"/>
<path d="M660 349 c0 -33 -6 -47 -30 -69 -34 -31 -37 -40 -15 -40 8 0 15 5 15
10 0 6 9 19 20 30 14 14 20 33 20 65 0 25 -2 45 -5 45 -3 0 -5 -18 -5 -41z"/>
<path d="M570 230 c0 -5 5 -10 10 -10 6 0 10 5 10 10 0 6 -4 10 -10 10 -5 0
-10 -4 -10 -10z"/>
</g>
</svg>
