<?xml version="1.0" standalone="no"?>
<!DOCTYPE svg PUBLIC "-//W3C//DTD SVG 20010904//EN"
 "http://www.w3.org/TR/2001/REC-SVG-20010904/DTD/svg10.dtd">
<svg version="1.0" xmlns="http://www.w3.org/2000/svg"
 width="101.000000pt" height="99.000000pt" viewBox="0 0 101.000000 99.000000"
 preserveAspectRatio="xMidYMid meet">

<g transform="translate(0.000000,99.000000) scale(0.100000,-0.100000)"
fill="#000000" stroke="none">
<path d="M430 480 c-30 -16 -61 -29 -69 -30 -8 0 -34 -9 -58 -21 -33 -16 -43
-26 -43 -45 0 -13 -4 -24 -9 -24 -18 0 -71 -59 -71 -79 0 -19 -13 -40 -47 -76
-7 -8 -13 -18 -13 -24 0 -6 -4 -11 -10 -11 -5 0 -10 -18 -10 -40 0 -22 5 -40
10 -40 6 0 10 -7 10 -16 0 -35 25 -44 129 -44 56 0 101 3 101 8 0 16 58 32
120 32 54 0 71 4 89 21 17 16 26 18 34 10 14 -14 87 -15 87 -1 0 6 32 10 75
10 43 0 75 4 75 10 0 6 9 10 21 10 11 0 29 10 40 23 19 23 26 77 9 77 -5 0
-10 9 -10 20 0 11 -4 20 -10 20 -5 0 -10 9 -10 20 0 11 -4 20 -10 20 -5 0 -10
7 -10 15 0 22 -41 61 -73 69 -15 3 -27 12 -27 19 0 23 -43 40 -99 38 -49 -1
-58 2 -82 29 -36 39 -68 39 -139 0z m122 -21 c2 -6 0 -47 -3 -91 -7 -81 -6
-106 7 -192 6 -44 5 -50 -17 -67 -25 -20 -89 -26 -89 -9 0 6 -7 10 -15 10 -8
0 -15 9 -15 20 0 11 -4 20 -10 20 -5 0 -10 9 -10 20 0 11 -4 20 -9 20 -5 0
-13 9 -16 20 -4 11 -17 32 -31 45 -13 13 -24 31 -24 40 0 8 -3 15 -7 15 -8 0
-33 48 -33 63 0 14 27 37 44 37 9 0 24 4 34 9 52 28 110 55 132 61 26 8 56 -2
62 -21z m153 -41 c29 -13 29 -8 5 -125 -5 -29 -14 -75 -18 -102 -12 -72 -52
-102 -88 -66 -38 38 -50 249 -16 288 18 20 78 23 117 5z m102 -71 c11 -13 26
-38 34 -55 8 -18 17 -32 21 -32 5 0 8 -11 8 -25 0 -14 5 -25 10 -25 15 0 12
-29 -4 -46 -8 -8 -26 -14 -40 -14 -14 0 -26 -4 -26 -10 0 -5 -13 -10 -30 -10
-16 0 -30 5 -30 10 0 6 -9 10 -21 10 -23 0 -23 -8 0 125 18 102 37 119 78 72z
m-517 -42 c8 -19 17 -35 22 -35 4 0 8 -6 8 -12 0 -7 11 -26 25 -42 13 -16 27
-37 30 -47 4 -11 10 -19 15 -19 4 0 10 -12 13 -26 3 -18 0 -27 -12 -32 -9 -3
-18 -8 -21 -11 -12 -14 -51 -31 -70 -31 -13 0 -20 7 -20 20 0 11 -4 20 -10 20
-5 0 -10 14 -10 30 0 17 -4 30 -10 30 -5 0 -10 7 -10 15 0 8 -9 30 -20 50 -11
20 -20 43 -20 52 0 16 53 73 68 73 5 0 14 -16 22 -35z m-82 -120 c7 -14 12
-32 12 -40 0 -7 4 -15 9 -17 5 -1 11 -19 13 -38 3 -34 2 -35 -35 -38 -22 -2
-42 2 -50 10 -32 36 -48 88 -27 88 6 0 10 7 10 15 0 21 21 44 41 45 9 0 21
-11 27 -25z"/>
<path d="M463 433 c-13 -2 -23 -9 -23 -14 0 -5 -9 -9 -20 -9 -13 0 -20 -7 -20
-20 0 -11 4 -20 8 -20 5 0 17 -18 27 -40 10 -22 21 -40 25 -40 3 0 16 -21 29
-47 19 -40 24 -44 32 -30 6 11 6 31 -1 58 -7 23 -11 63 -10 88 4 86 6 84 -47
74z"/>
</g>
</svg>
