<svg width="32" height="32" viewBox="0 0 32 32" fill="none" xmlns="http://www.w3.org/2000/svg">
<path d="M31.36 5.54658C30.5179 7.047 29.4653 8.36071 28.2489 9.42925C28.2489 9.53591 28.2489 9.70658 28.2844 9.91991L28.32 10.4106C28.3152 14.6201 27.2696 18.7333 25.3156 22.2292C24.3022 24.0426 23.1111 25.6852 21.7244 27.0932C20.2373 28.5824 18.5392 29.7385 16.7111 30.5066C14.1143 31.6204 11.3404 32.011 8.59927 31.6488C5.85812 31.2866 3.22152 30.1811 0.888885 28.4159C1.49333 28.4586 1.97333 28.5012 2.36444 28.5012C5.28 28.5012 7.87555 27.4346 10.1511 25.3012C8.84562 25.2525 7.58381 24.7256 6.53512 23.7913C5.48642 22.857 4.70104 21.5601 4.28444 20.0746C5.21828 20.3479 6.19709 20.3035 7.11111 19.9466C5.69994 19.6147 4.42973 18.7017 3.52 17.3652C2.58577 16.0439 2.08071 14.362 2.09777 12.6292V12.5652C2.91555 13.0772 3.84 13.3546 4.90666 13.4186C4.0579 12.7415 3.36311 11.8213 2.88511 10.7412C2.4071 9.66098 2.16094 8.4549 2.16889 7.23191C2.16889 5.93058 2.41777 4.67191 2.96889 3.41325C4.51124 5.73093 6.45154 7.62273 8.65777 8.95991C10.9128 10.331 13.3856 11.1092 15.9111 11.2426C15.7701 10.6889 15.6923 10.1147 15.68 9.53591C15.68 7.46658 16.2844 5.69591 17.5111 4.24525C18.1008 3.52555 18.8076 2.9591 19.5874 2.58109C20.3673 2.20308 21.2036 2.02159 22.0444 2.04791C22.8907 2.04885 23.7278 2.25752 24.5044 2.66108C25.2809 3.06464 25.9805 3.65457 26.56 4.39458C27.9822 4.07458 29.2978 3.45591 30.5244 2.58125C30.078 4.32482 29.1004 5.80252 27.7867 6.71991C29.1022 6.50658 30.2756 6.12258 31.36 5.56791V5.54658Z" fill="black"/>
</svg>
