<svg width="33" height="33" viewBox="0 0 33 33" fill="none" xmlns="http://www.w3.org/2000/svg">
<g clip-path="url(#clip0_1_308)">
<path d="M30.1911 2.08447C30.6711 2.08447 31.08 2.26225 31.4178 2.58225C31.7555 2.93781 31.9155 3.32892 31.9155 3.82669V31.2756C31.9155 31.7556 31.7378 32.1645 31.4178 32.5022C31.2559 32.6666 31.0618 32.7957 30.8476 32.8814C30.6335 32.967 30.4039 33.0074 30.1733 33H22.3689V21.0889H26.3689L26.92 16.3778H22.3689V13.3556C22.3689 12.6445 22.5467 12.0756 22.8667 11.7022C23.1867 11.3467 23.7555 11.1334 24.6444 11.1334H27.08V6.95558C26.0133 6.84892 24.8222 6.77781 23.5067 6.77781C21.7111 6.77781 20.2533 7.31114 19.1511 8.37781C18.0489 9.44447 17.4978 10.9378 17.4978 12.8756V16.3778H13.5155V21.0889H17.4978V33H2.74221C2.24444 33 1.85333 32.8222 1.49777 32.5022C1.3334 32.3404 1.20432 32.1463 1.11865 31.9321C1.03298 31.7179 0.992583 31.4884 0.999993 31.2578V3.82669C0.999993 3.34669 1.17777 2.93781 1.49777 2.60003C1.65961 2.43566 1.85373 2.30658 2.0679 2.22091C2.28207 2.13524 2.51166 2.09484 2.74221 2.10225H30.1911V2.08447Z" fill="black"/>
</g>
<defs>
<clipPath id="clip0_1_308">
<rect width="32" height="32" fill="white" transform="translate(1 1)"/>
</clipPath>
</defs>
</svg>
